#!OML:ASF X:\für Bonn\!DataBase\2005_08_12_Daniel\c3d\Daniel.ASF
:FULLY-SPECIFIED
:DEGREES
371
root 2.44613 17.3573 -11.2655 352.306 23.3622 0.501599
lowerback 19.5184 -3.85994 -5.78309
upperback 2.34834 -6.55262 -3.28332
thorax -8.08814 -2.99542 1.39479
lowerneck 0.948817 -5.86061 -4.65189
upperneck 16.5533 -9.11533 9.19028
head 5.44318 -4.2184 3.21479
rclavicle 5.93372e-014 -9.54166e-015
rhumerus -29.6935 4.78061 -90.8925
rradius 72.828
rwrist -68.2553
rhand -1.27628 11.3399
rfingers 7.12502
rthumb 24.3674 -17.1309
lclavicle 5.93372e-014 -9.54166e-015
lhumerus -26.5155 34.278 71.6311
lradius 19.4572
lwrist -33.3487
lhand -11.2992 -7.36601
lfingers 7.12502
lthumb 14.7322 22.0905
rfemur -24.4589 -9.81297 20.2746
rtibia 48.6853
rfoot -8.55931 -357.181
rtoes -7.57759
lfemur 9.19143 -12.9033 -27.5626
ltibia 28.6991
lfoot -30.7053 -2.02839
ltoes -7.91068
372
root 2.46602 17.3585 -11.1917 352.417 23.3344 0.544496
lowerback 19.4112 -3.8764 -5.7182
upperback 2.31358 -6.55406 -3.26596
thorax -8.07303 -2.99888 1.37123
lowerneck 0.792278 -5.93295 -4.71587
upperneck 16.5754 -9.21386 9.20275
head 5.48775 -4.26453 3.21774
rclavicle 1.28216e-014 1.74931e-014
rhumerus -29.9863 4.84341 -90.8871
rradius 72.8007
rwrist -67.9741
rhand -1.83485 11.0762
rfingers 7.12502
rthumb 23.8318 -17.4655
lclavicle 1.28216e-014 1.74931e-014
lhumerus -26.7155 33.9127 71.8089
lradius 19.6031
lwrist -32.9338
lhand -11.3294 -7.35648
lfingers 7.12502
lthumb 14.7031 22.1021
rfemur -24.5338 -9.71081 20.3438
rtibia 47.3615
rfoot -8.65696 -358.109
rtoes -6.7922
lfemur 9.61949 -12.8168 -27.5854
ltibia 28.2013
lfoot -30.5541 -2.06069
ltoes -7.43785
373
root 2.48667 17.3575 -11.1166 352.528 23.2891 0.591196
lowerback 19.2919 -3.89203 -5.65352
upperback 2.2982 -6.55131 -3.24026
thorax -8.02919 -3.00157 1.3539
lowerneck 0.635718 -5.99393 -4.78388
upperneck 16.5713 -9.29495 9.22021
head 5.5233 -4.30267 3.22389
rclavicle -4.32357e-014 -2.8625e-014
rhumerus -30.2699 4.88131 -90.8951
rradius 72.7697
rwrist -67.6415
rhand -2.30968 10.8417
rfingers 7.12502
rthumb 23.3763 -17.7587
lclavicle -4.32357e-014 -2.8625e-014
lhumerus -26.8724 33.5797 72.0099
lradius 19.7232
lwrist -32.5624
lhand -11.4228 -7.36961
lfingers 7.12502
lthumb 14.6132 22.0955
rfemur -24.5964 -9.58474 20.4037
rtibia 46.0079
rfoot -8.76927 -359.078
rtoes -6.12288
lfemur 10.0764 -12.7775 -27.6502
ltibia 27.6868
lfoot -30.4112 -1.99162
ltoes -7.10497
374
root 2.50685 17.354 -11.0408 352.603 23.2525 0.629768
lowerback 19.1923 -3.8943 -5.56305
upperback 2.31324 -6.52504 -3.21752
thorax -7.96707 -2.99469 1.31369
lowerneck 0.520186 -6.06483 -4.85373
upperneck 16.5148 -9.3888 9.25981
head 5.53771 -4.34818 3.23798
rclavicle -1.1947e-013 -3.97569e-014
rhumerus -30.5072 4.90523 -90.9163
rradius 72.7075
rwrist -67.2921
rhand -2.86096 10.6986
rfingers 7.12502
rthumb 22.8474 -17.9681
lclavicle -1.1947e-013 -3.97569e-014
lhumerus -26.984 33.4215 72.1898
lradius 19.7816
lwrist -32.4708
lhand -11.5032 -7.39162
lfingers 7.12502
lthumb 14.5357 22.0791
rfemur -24.6014 -9.49047 20.4644
rtibia 44.6218
rfoot -8.90023 -360.111
rtoes -5.58673
lfemur 10.5612 -12.7172 -27.6937
ltibia 27.1821
lfoot -30.2563 -1.99897
ltoes -6.53754
375
root 2.52758 17.3495 -10.9628 352.711 23.2032 0.659534
lowerback 19.049 -3.89617 -5.45014
upperback 2.31709 -6.49175 -3.1957
thorax -7.89637 -2.98554 1.25559
lowerneck 0.489481 -6.13333 -4.95335
upperneck 16.3911 -9.48023 9.34045
head 5.51978 -4.396 3.27308
rclavicle -8.19987e-014 -4.45278e-014
rhumerus -30.729 4.91047 -90.9561
rradius 72.6338
rwrist -66.987
rhand -3.39554 10.5216
rfingers 7.12502
rthumb 22.3343 -18.2075
lclavicle -8.19987e-014 -4.45278e-014
lhumerus -27.1532 33.1148 72.3951
lradius 19.9202
lwrist -32.2119
lhand -11.6262 -7.40256
lfingers 7.12502
lthumb 14.4172 22.0767
rfemur -24.6178 -9.35646 20.5371
rtibia 43.2048
rfoot -9.14328 -361.142
rtoes -5.2769
lfemur 11.0158 -12.7157 -27.7534
ltibia 26.6876
lfoot -30.1356 -1.89968
ltoes -6.25307
376
root 2.54775 17.3426 -10.8843 352.833 23.139 0.705721
lowerback 18.8974 -3.88597 -5.33006
upperback 2.33515 -6.44022 -3.17913
thorax -7.80782 -2.96859 1.18238
lowerneck 0.432193 -6.20546 -5.06605
upperneck 16.2752 -9.57626 9.42411
head 5.51013 -4.44558 3.30995
rclavicle -2.15681e-014 -4.92986e-014
rhumerus -30.9201 4.9319 -91.0064
rradius 72.5508
rwrist -66.6925
rhand -4.03401 10.4328
rfingers 7.12502
rthumb 21.7213 -18.3686
lclavicle -2.15681e-014 -4.92986e-014
lhumerus -27.316 32.7521 72.626
lradius 20.0875
lwrist -31.9549
lhand -11.7189 -7.34591
lfingers 7.12502
lthumb 14.3279 22.1397
rfemur -24.626 -9.22781 20.591
rtibia 41.7541
rfoot -9.40151 -362.121
rtoes -5.30681
lfemur 11.4472 -12.7058 -27.8263
ltibia 26.2384
lfoot -30.0443 -1.81616
ltoes -5.85386
377
root 2.5683 17.3341 -10.8047 352.918 23.0767 0.743916
lowerback 18.7798 -3.87762 -5.17361
upperback 2.36808 -6.38742 -3.18486
thorax -7.72816 -2.95194 1.06715
lowerneck 0.432221 -6.27948 -5.11072
upperneck 16.1087 -9.67233 9.49416
head 5.47141 -4.49495 3.33362
rclavicle -3.80673e-014 1.90833e-014
rhumerus -31.105 4.93405 -91.1145
rradius 72.4828
rwrist -66.5078
rhand -4.74922 10.3379
rfingers 7.12502
rthumb 21.0343 -18.5414
lclavicle -3.80673e-014 1.90833e-014
lhumerus -27.5019 32.206 72.8505
lradius 20.2959
lwrist -31.5401
lhand -11.7714 -7.26441
lfingers 7.12502
lthumb 14.2773 22.2248
rfemur -24.5693 -9.04818 20.6194
rtibia 40.2876
rfoot -9.76685 -363.02
rtoes -5.77917
lfemur 11.9005 -12.7023 -27.9037
ltibia 25.8167
lfoot -29.9672 -1.72565
ltoes -5.54044
378
root 2.58847 17.3245 -10.7232 353.017 23.0049 0.789794
lowerback 18.6456 -3.87211 -5.04911
upperback 2.40208 -6.34219 -3.16971
thorax -7.63169 -2.93814 0.992404
lowerneck 0.424954 -6.32981 -5.19654
upperneck 15.9482 -9.73641 9.57775
head 5.43587 -4.52996 3.37001
rclavicle 8.52786e-014 1.90833e-014
rhumerus -31.2967 5.02662 -91.2316
rradius 72.4146
rwrist -66.3686
rhand -5.55874 10.3335
rfingers 7.12502
rthumb 20.2565 -18.6302
lclavicle 8.52786e-014 1.90833e-014
lhumerus -27.7543 31.8843 73.0118
lradius 20.5204
lwrist -31.3209
lhand -11.7701 -7.19945
lfingers 7.12502
lthumb 14.2785 22.2897
rfemur -24.4872 -8.81038 20.6143
rtibia 38.8033
rfoot -10.1943 -363.818
rtoes -6.47984
lfemur 12.3227 -12.6904 -27.9864
ltibia 25.4506
lfoot -29.9133 -1.60621
ltoes -5.17882
379
root 2.60905 17.3147 -10.6407 353.136 22.9209 0.855503
lowerback 18.5199 -3.87266 -4.94004
upperback 2.4218 -6.31 -3.15253
thorax -7.55286 -2.92922 0.93272
lowerneck 0.442542 -6.36542 -5.29497
upperneck 15.781 -9.77842 9.6528
head 5.39257 -4.55635 3.40808
rclavicle 3.93594e-014 3.18055e-015
rhumerus -31.4604 5.17621 -91.3892
rradius 72.2728
rwrist -66.2653
rhand -6.43648 10.3628
rfingers 7.12502
rthumb 19.4127 -18.6882
lclavicle 3.93594e-014 3.18055e-015
lhumerus -28.0477 31.7529 73.1037
lradius 20.7052
lwrist -31.2006
lhand -11.7781 -7.12202
lfingers 7.12502
lthumb 14.2708 22.3676
rfemur -24.3965 -8.48678 20.555
rtibia 37.3259
rfoot -10.7278 -364.61
rtoes -7.23305
lfemur 12.7195 -12.704 -28.0995
ltibia 25.1137
lfoot -29.9066 -1.49095
ltoes -4.83709
380
root 2.62948 17.3036 -10.5575 353.234 22.8407 0.89875
lowerback 18.4148 -3.86421 -4.78244
upperback 2.44615 -6.25805 -3.13756
thorax -7.48644 -2.91163 0.840744
lowerneck 0.502063 -6.41924 -5.4026
upperneck 15.5666 -9.84701 9.76355
head 5.33194 -4.59662 3.4589
rclavicle -5.37713e-014 2.70347e-014
rhumerus -31.5742 5.27577 -91.5464
rradius 72.0322
rwrist -66.2106
rhand -7.28986 10.4369
rfingers 7.12502
rthumb 18.592 -18.6946
lclavicle -5.37713e-014 2.70347e-014
lhumerus -28.3438 31.4516 73.2408
lradius 20.9103
lwrist -30.9383
lhand -11.7596 -6.98581
lfingers 7.12502
lthumb 14.2886 22.5026
rfemur -24.271 -8.18586 20.5108
rtibia 35.8471
rfoot -11.2928 -365.358
rtoes -8.10367
lfemur 13.1023 -12.6455 -28.1619
ltibia 24.8188
lfoot -29.9382 -1.42549
ltoes -4.73929
381
root 2.64948 17.2928 -10.4728 353.34 22.7544 0.961807
lowerback 18.3367 -3.86138 -4.63243
upperback 2.45117 -6.22044 -3.14521
thorax -7.45687 -2.89944 0.735076
lowerneck 0.598552 -6.44882 -5.45019
upperneck 15.3471 -9.88117 9.8475
head 5.25667 -4.61958 3.49519
rclavicle 9.81996e-014 -9.54166e-015
rhumerus -31.77 5.40638 -91.7469
rradius 71.8485
rwrist -66.2674
rhand -8.15324 10.4994
rfingers 7.12502
rthumb 17.7614 -18.7094
lclavicle 9.81996e-014 -9.54166e-015
lhumerus -28.6782 31.3281 73.2401
lradius 21.0275
lwrist -30.7946
lhand -11.736 -6.87691
lfingers 7.12502
lthumb 14.3114 22.6099
rfemur -24.1466 -7.80196 20.4228
rtibia 34.4159
rfoot -11.8775 -366.153
rtoes -8.65048
lfemur 13.4947 -12.6194 -28.2622
ltibia 24.5315
lfoot -30.0044 -1.3209
ltoes -4.60064
382
root 2.66987 17.282 -10.3859 353.457 22.6679 1.02413
lowerback 18.2397 -3.86003 -4.48157
upperback 2.44742 -6.18326 -3.139
thorax -7.4248 -2.88737 0.642802
lowerneck 0.70036 -6.48191 -5.50254
upperneck 15.1408 -9.9205 9.9274
head 5.1852 -4.64543 3.53085
rclavicle -7.93151e-014 6.36111e-015
rhumerus -31.9793 5.55242 -91.9381
rradius 71.6121
rwrist -66.3152
rhand -9.01515 10.6048
rfingers 7.12502
rthumb 16.9319 -18.6771
lclavicle -7.93151e-014 6.36111e-015
lhumerus -29.0578 31.2369 73.2359
lradius 21.1464
lwrist -30.6861
lhand -11.6984 -6.68534
lfingers 7.12502
lthumb 14.3476 22.7989
rfemur -24.0306 -7.33472 20.3077
rtibia 33.036
rfoot -12.482 -367.025
rtoes -9.28451
lfemur 13.8675 -12.5806 -28.3453
ltibia 24.2579
lfoot -30.0958 -1.25935
ltoes -4.317
